<svg width="32" height="32" viewBox="0 0 32 32" fill="none" xmlns="http://www.w3.org/2000/svg">
<rect width="32" height="32" rx="8" fill="black"/>
<path d="M22.7562 10.7581H22.7529C22.7529 10.7336 22.7537 10.7092 22.7537 10.6855C22.7546 10.71 22.7546 10.7336 22.7562 10.7581Z" fill="white"/>
<path d="M22.7562 10.6123C22.7546 10.6367 22.7546 10.6612 22.7537 10.6856C22.7537 10.6612 22.7529 10.6367 22.7529 10.6123H22.7562Z" fill="white"/>
<path d="M22.7529 10.7581C22.7529 10.7336 22.7537 10.7092 22.7537 10.6855C22.7546 10.71 22.7546 10.7336 22.7562 10.7581H22.7529Z" fill="white"/>
<path d="M22.7562 10.6123C22.7546 10.6367 22.7546 10.6612 22.7537 10.6856C22.7537 10.6612 22.7529 10.6367 22.7529 10.6123H22.7562Z" fill="white"/>
<path d="M15.3866 19.1662C14.2821 21.9246 11.7831 24.0671 8.70961 24.829C7.68947 25.0818 6.65873 24.3531 6.60148 23.3036C6.59965 23.2692 6.59863 23.2344 6.59863 23.1993V8.80074C6.59863 8.76591 6.59965 8.73107 6.60148 8.69665C6.65893 7.63902 7.70169 6.92055 8.72917 7.17722C11.7334 7.92766 14.186 9.99831 15.3192 12.6713C13.7297 12.9443 12.4983 14.2651 12.4368 15.8511C12.4352 15.8721 12.4352 15.8933 12.4343 15.9135C12.4352 15.9344 12.4352 15.9556 12.4368 15.9766C12.4991 17.5855 13.7643 18.9197 15.3866 19.1664V19.1662Z" fill="white"/>
<path d="M23.2834 7.15641C20.237 7.88933 17.7459 9.97892 16.6035 12.6829C18.161 12.9803 19.3604 14.2866 19.4203 15.8517C19.422 15.8727 19.422 15.8931 19.4228 15.9132C19.422 15.9342 19.422 15.9546 19.4203 15.9756C19.3596 17.5634 18.1274 18.8824 16.5371 19.1562C17.6469 21.9369 20.1736 24.094 23.2793 24.8436C24.3064 25.0915 25.3402 24.3596 25.398 23.3046C25.3998 23.2698 25.4009 23.2345 25.4009 23.1993V8.8007C25.4009 8.76546 25.3998 8.73042 25.398 8.69559C25.3402 7.64244 24.309 6.90972 23.2836 7.15641H23.2834ZM22.7558 10.7581H22.7525C22.7525 10.7336 22.7533 10.7092 22.7533 10.6856C22.7533 10.6619 22.7525 10.6367 22.7525 10.6122H22.7558C22.7541 10.6367 22.7541 10.6611 22.7533 10.6856C22.7541 10.71 22.7541 10.7336 22.7558 10.7581Z" fill="white"/>
<path d="M22.7529 10.7581C22.7529 10.7336 22.7537 10.7092 22.7537 10.6855C22.7546 10.71 22.7546 10.7336 22.7562 10.7581H22.7529Z" fill="white"/>
<path d="M22.7562 10.6123C22.7546 10.6367 22.7546 10.6612 22.7537 10.6856C22.7537 10.6612 22.7529 10.6367 22.7529 10.6123H22.7562Z" fill="white"/>
</svg>
